<mxfile host="Electron" compressed="false" modified="2022-10-05T08:48:51.344Z" agent="5.0 (Windows NT 10.0; Win64; x64) AppleWebKit/537.36 (KHTML, like Gecko) draw.io/20.3.0 Chrome/104.0.5112.114 Electron/20.1.3 Safari/537.36" etag="18qcjeNfNFZxPyNlO6DV" version="20.3.0" type="device" pages="2">
  <diagram id="-YQtXBwrtJD2vOdr6RwO" name="Page-2">
    <mxGraphModel dx="1929" dy="875" grid="1" gridSize="10" guides="1" tooltips="1" connect="1" arrows="1" fold="1" page="1" pageScale="1" pageWidth="827" pageHeight="1169" math="0" shadow="0">
      <root>
        <mxCell id="DSBpvsaAotULgExrWG27-0" />
        <mxCell id="DSBpvsaAotULgExrWG27-1" parent="DSBpvsaAotULgExrWG27-0" />
        <mxCell id="785O34qDf-zVEBAu9AOr-14" style="edgeStyle=orthogonalEdgeStyle;curved=1;rounded=0;orthogonalLoop=1;jettySize=auto;html=1;entryX=0;entryY=0.5;entryDx=0;entryDy=0;startArrow=classic;startFill=1;" parent="DSBpvsaAotULgExrWG27-1" edge="1">
          <mxGeometry relative="1" as="geometry">
            <mxPoint x="-434" y="187.5" as="sourcePoint" />
            <mxPoint x="-364" y="187.5" as="targetPoint" />
          </mxGeometry>
        </mxCell>
        <mxCell id="785O34qDf-zVEBAu9AOr-17" style="edgeStyle=orthogonalEdgeStyle;curved=1;rounded=0;orthogonalLoop=1;jettySize=auto;html=1;exitX=1;exitY=0.5;exitDx=0;exitDy=0;startArrow=classic;startFill=1;" parent="DSBpvsaAotULgExrWG27-1" edge="1">
          <mxGeometry relative="1" as="geometry">
            <Array as="points">
              <mxPoint x="-242" y="188" />
              <mxPoint x="-242" y="103" />
            </Array>
            <mxPoint x="-120" y="103" as="targetPoint" />
            <mxPoint x="-310" y="187.5" as="sourcePoint" />
          </mxGeometry>
        </mxCell>
        <mxCell id="785O34qDf-zVEBAu9AOr-6" value="BGERP Плагины" style="fillColor=none;strokeColor=#5A6C86;dashed=1;verticalAlign=top;fontStyle=0;fontColor=#000000;" parent="DSBpvsaAotULgExrWG27-1" vertex="1">
          <mxGeometry x="-152" y="50" width="142" height="270" as="geometry" />
        </mxCell>
        <mxCell id="785O34qDf-zVEBAu9AOr-24" value="" style="endArrow=classic;html=1;rounded=0;curved=1;" parent="DSBpvsaAotULgExrWG27-1" edge="1">
          <mxGeometry width="50" height="50" relative="1" as="geometry">
            <mxPoint x="-662" y="176.5" as="sourcePoint" />
            <mxPoint x="-512" y="176.5" as="targetPoint" />
          </mxGeometry>
        </mxCell>
        <mxCell id="785O34qDf-zVEBAu9AOr-26" value="Оплачивает подписки&lt;br&gt;на плагины" style="text;html=1;strokeColor=none;fillColor=none;align=center;verticalAlign=middle;whiteSpace=wrap;rounded=0;" parent="DSBpvsaAotULgExrWG27-1" vertex="1">
          <mxGeometry x="-660" y="146.25" width="128" height="30" as="geometry" />
        </mxCell>
        <mxCell id="785O34qDf-zVEBAu9AOr-27" value="" style="endArrow=classic;html=1;rounded=0;curved=1;" parent="DSBpvsaAotULgExrWG27-1" edge="1">
          <mxGeometry width="50" height="50" relative="1" as="geometry">
            <mxPoint x="-512" y="200" as="sourcePoint" />
            <mxPoint x="-662.0000000000002" y="200" as="targetPoint" />
          </mxGeometry>
        </mxCell>
        <mxCell id="785O34qDf-zVEBAu9AOr-28" value="Выставляет ежемесячные счета&lt;br&gt;Предоставляет текущую поддержку" style="text;html=1;strokeColor=none;fillColor=none;align=center;verticalAlign=middle;whiteSpace=wrap;rounded=0;" parent="DSBpvsaAotULgExrWG27-1" vertex="1">
          <mxGeometry x="-668" y="203" width="158" height="57" as="geometry" />
        </mxCell>
        <mxCell id="785O34qDf-zVEBAu9AOr-29" value="Получает оплату&lt;br&gt;за свой плагин&amp;nbsp;" style="text;html=1;strokeColor=none;fillColor=none;align=center;verticalAlign=middle;whiteSpace=wrap;rounded=0;fontSize=12;" parent="DSBpvsaAotULgExrWG27-1" vertex="1">
          <mxGeometry x="-4" y="129" width="162" height="25" as="geometry" />
        </mxCell>
        <mxCell id="785O34qDf-zVEBAu9AOr-30" value="" style="endArrow=classic;html=1;rounded=0;curved=1;" parent="DSBpvsaAotULgExrWG27-1" edge="1">
          <mxGeometry width="50" height="50" relative="1" as="geometry">
            <mxPoint y="159.52" as="sourcePoint" />
            <mxPoint x="152" y="159.02" as="targetPoint" />
          </mxGeometry>
        </mxCell>
        <mxCell id="785O34qDf-zVEBAu9AOr-31" value="" style="endArrow=classic;html=1;rounded=0;curved=1;" parent="DSBpvsaAotULgExrWG27-1" edge="1">
          <mxGeometry width="50" height="50" relative="1" as="geometry">
            <mxPoint x="150" y="212.52" as="sourcePoint" />
            <mxPoint x="-2.2737367544323206e-13" y="213.01999999999978" as="targetPoint" />
          </mxGeometry>
        </mxCell>
        <mxCell id="785O34qDf-zVEBAu9AOr-32" value="Поддерживает и улучшает свой плагин" style="text;html=1;strokeColor=none;fillColor=none;align=center;verticalAlign=middle;whiteSpace=wrap;rounded=0;" parent="DSBpvsaAotULgExrWG27-1" vertex="1">
          <mxGeometry x="21" y="217.5" width="122" height="32.5" as="geometry" />
        </mxCell>
        <mxCell id="DV32VEBp2_xvAdngHaSN-0" style="edgeStyle=orthogonalEdgeStyle;curved=1;rounded=0;orthogonalLoop=1;jettySize=auto;html=1;exitX=1;exitY=0.5;exitDx=0;exitDy=0;startArrow=classic;startFill=1;" parent="DSBpvsaAotULgExrWG27-1" edge="1">
          <mxGeometry relative="1" as="geometry">
            <mxPoint x="-310" y="187.5" as="sourcePoint" />
            <mxPoint x="-114" y="187.5" as="targetPoint" />
            <Array as="points">
              <mxPoint x="-262" y="188" />
              <mxPoint x="-262" y="188" />
            </Array>
          </mxGeometry>
        </mxCell>
        <mxCell id="DV32VEBp2_xvAdngHaSN-4" style="edgeStyle=orthogonalEdgeStyle;curved=1;rounded=0;orthogonalLoop=1;jettySize=auto;html=1;exitX=1;exitY=0.5;exitDx=0;exitDy=0;startArrow=classic;startFill=1;" parent="DSBpvsaAotULgExrWG27-1" edge="1">
          <mxGeometry relative="1" as="geometry">
            <mxPoint x="-310" y="187.5" as="sourcePoint" />
            <mxPoint x="-120" y="279" as="targetPoint" />
            <Array as="points">
              <mxPoint x="-242" y="188" />
              <mxPoint x="-242" y="279" />
            </Array>
          </mxGeometry>
        </mxCell>
        <mxCell id="81CI9wWh9y6hFNezA99m-2" value="&lt;span&gt;Клиент&lt;/span&gt;" style="verticalLabelPosition=bottom;html=1;verticalAlign=top;align=center;strokeColor=#0e8088;fillColor=#b0e3e6;shape=mxgraph.azure.user;labelBackgroundColor=none;" parent="DSBpvsaAotULgExrWG27-1" vertex="1">
          <mxGeometry x="-727.5" y="163.25" width="47.5" height="50" as="geometry" />
        </mxCell>
        <mxCell id="81CI9wWh9y6hFNezA99m-6" value="&lt;span style=&quot;color: rgb(35 , 47 , 62)&quot;&gt;Владелец&lt;br&gt;Плагина 1&lt;/span&gt;" style="shadow=0;dashed=0;html=1;strokeColor=#b46504;fillColor=#fad7ac;labelPosition=center;verticalLabelPosition=bottom;verticalAlign=top;align=center;outlineConnect=0;shape=mxgraph.veeam.company_owner;labelBackgroundColor=none;direction=east;" parent="DSBpvsaAotULgExrWG27-1" vertex="1">
          <mxGeometry x="170" y="50" width="44.4" height="48.8" as="geometry" />
        </mxCell>
        <mxCell id="81CI9wWh9y6hFNezA99m-8" value="&lt;font color=&quot;#232f3e&quot;&gt;Владелец&lt;br&gt;&lt;/font&gt;Плагина 2" style="shadow=0;dashed=0;html=1;strokeColor=#b46504;fillColor=#fad7ac;labelPosition=center;verticalLabelPosition=bottom;verticalAlign=top;align=center;outlineConnect=0;shape=mxgraph.veeam.company_owner;labelBackgroundColor=none;direction=east;" parent="DSBpvsaAotULgExrWG27-1" vertex="1">
          <mxGeometry x="170" y="160" width="44.4" height="48.8" as="geometry" />
        </mxCell>
        <mxCell id="81CI9wWh9y6hFNezA99m-9" value="&lt;font color=&quot;#232f3e&quot;&gt;Владелец&lt;br&gt;&lt;/font&gt;Плагина 3" style="shadow=0;dashed=0;html=1;strokeColor=#b46504;fillColor=#fad7ac;labelPosition=center;verticalLabelPosition=bottom;verticalAlign=top;align=center;outlineConnect=0;shape=mxgraph.veeam.company_owner;labelBackgroundColor=none;direction=east;" parent="DSBpvsaAotULgExrWG27-1" vertex="1">
          <mxGeometry x="170" y="261.2" width="44.4" height="48.8" as="geometry" />
        </mxCell>
        <mxCell id="81CI9wWh9y6hFNezA99m-13" value="Плагин 1 " style="shape=module;align=left;spacingLeft=20;align=center;verticalAlign=middle;labelBackgroundColor=none;fillColor=#d0cee2;jettyWidth=15;jettyHeight=8;strokeColor=#56517e;" parent="DSBpvsaAotULgExrWG27-1" vertex="1">
          <mxGeometry x="-114" y="80" width="70" height="40" as="geometry" />
        </mxCell>
        <mxCell id="81CI9wWh9y6hFNezA99m-14" value="Плагин 2 " style="shape=module;align=left;spacingLeft=20;align=center;verticalAlign=middle;labelBackgroundColor=none;fillColor=#d0cee2;jettyWidth=15;jettyHeight=8;strokeColor=#56517e;" parent="DSBpvsaAotULgExrWG27-1" vertex="1">
          <mxGeometry x="-114" y="167.5" width="70" height="40" as="geometry" />
        </mxCell>
        <mxCell id="81CI9wWh9y6hFNezA99m-15" value="Плагин 3 " style="shape=module;align=left;spacingLeft=20;align=center;verticalAlign=middle;labelBackgroundColor=none;fillColor=#d0cee2;jettyWidth=15;jettyHeight=8;strokeColor=#56517e;" parent="DSBpvsaAotULgExrWG27-1" vertex="1">
          <mxGeometry x="-114" y="260" width="70" height="40" as="geometry" />
        </mxCell>
        <mxCell id="81CI9wWh9y6hFNezA99m-18" value="Консультант" style="sketch=0;points=[[0,0,0],[0.25,0,0],[0.5,0,0],[0.75,0,0],[1,0,0],[0,1,0],[0.25,1,0],[0.5,1,0],[0.75,1,0],[1,1,0],[0,0.25,0],[0,0.5,0],[0,0.75,0],[1,0.25,0],[1,0.5,0],[1,0.75,0]];outlineConnect=0;gradientDirection=north;fillColor=#b0e3e6;strokeColor=#0e8088;dashed=0;verticalLabelPosition=bottom;verticalAlign=top;align=center;html=1;fontSize=12;fontStyle=0;aspect=fixed;shape=mxgraph.aws4.resourceIcon;resIcon=mxgraph.aws4.codebuild;labelBackgroundColor=none;" parent="DSBpvsaAotULgExrWG27-1" vertex="1">
          <mxGeometry x="-510" y="150" width="70" height="70" as="geometry" />
        </mxCell>
        <mxCell id="AzPZ-loim3uA4tV18Kak-0" value="&lt;span style=&quot;background-color: rgb(255, 255, 255);&quot;&gt;Subscription&lt;/span&gt;" style="sketch=0;pointerEvents=1;shadow=0;dashed=0;html=1;strokeColor=none;fillColor=#404040;labelPosition=center;verticalLabelPosition=bottom;verticalAlign=top;outlineConnect=0;align=center;shape=mxgraph.office.concepts.sign_up;" vertex="1" parent="DSBpvsaAotULgExrWG27-1">
          <mxGeometry x="-360" y="160" width="55.56" height="51.2" as="geometry" />
        </mxCell>
      </root>
    </mxGraphModel>
  </diagram>
  <diagram id="6tY0Vj5RdtnJcPItD3VR" name="Page-1">
    <mxGraphModel dx="1186" dy="587" grid="1" gridSize="10" guides="1" tooltips="1" connect="1" arrows="1" fold="1" page="1" pageScale="1" pageWidth="850" pageHeight="1100" math="0" shadow="0">
      <root>
        <mxCell id="0" />
        <mxCell id="1" parent="0" />
        <mxCell id="0R1qAQ1jFFHAe7dVqIl4-91" value="" style="edgeStyle=elbowEdgeStyle;elbow=horizontal;endArrow=classic;html=1;strokeWidth=2;entryX=0;entryY=0;entryDx=0;entryDy=0;strokeColor=#CC6600;dashed=1;" parent="1" target="0R1qAQ1jFFHAe7dVqIl4-65" edge="1">
          <mxGeometry width="50" height="50" relative="1" as="geometry">
            <mxPoint x="160" y="320" as="sourcePoint" />
            <mxPoint x="210" y="270" as="targetPoint" />
            <Array as="points">
              <mxPoint x="300" y="350" />
            </Array>
          </mxGeometry>
        </mxCell>
        <mxCell id="0R1qAQ1jFFHAe7dVqIl4-85" value="" style="curved=1;endArrow=classic;html=1;dashed=1;strokeWidth=2;strokeColor=#CC6600;entryX=0;entryY=0.5;entryDx=0;entryDy=0;" parent="1" target="0R1qAQ1jFFHAe7dVqIl4-84" edge="1">
          <mxGeometry width="50" height="50" relative="1" as="geometry">
            <mxPoint x="630" y="100" as="sourcePoint" />
            <mxPoint x="690" y="40" as="targetPoint" />
            <Array as="points">
              <mxPoint x="630" y="80" />
              <mxPoint x="660" y="59" />
            </Array>
          </mxGeometry>
        </mxCell>
        <mxCell id="0R1qAQ1jFFHAe7dVqIl4-58" value="" style="edgeStyle=elbowEdgeStyle;elbow=horizontal;endArrow=classic;html=1;dashed=1;entryX=0;entryY=1;entryDx=0;entryDy=0;strokeWidth=2;strokeColor=#CC6600;" parent="1" source="0R1qAQ1jFFHAe7dVqIl4-11" target="0R1qAQ1jFFHAe7dVqIl4-54" edge="1">
          <mxGeometry width="50" height="50" relative="1" as="geometry">
            <mxPoint x="430" y="250" as="sourcePoint" />
            <mxPoint x="340" y="170" as="targetPoint" />
            <Array as="points">
              <mxPoint x="300" y="140" />
            </Array>
          </mxGeometry>
        </mxCell>
        <mxCell id="0R1qAQ1jFFHAe7dVqIl4-11" value="" style="shape=mxgraph.bpmn.user_task;html=1;outlineConnect=0;fillColor=#FFD1A8;" parent="1" vertex="1">
          <mxGeometry x="130" y="90" width="30" height="30" as="geometry" />
        </mxCell>
        <mxCell id="0R1qAQ1jFFHAe7dVqIl4-23" value="" style="shape=mxgraph.bpmn.user_task;html=1;outlineConnect=0;fillColor=#FFB570;" parent="1" vertex="1">
          <mxGeometry x="130" y="300" width="30" height="30" as="geometry" />
        </mxCell>
        <mxCell id="0R1qAQ1jFFHAe7dVqIl4-37" value="" style="shape=image;html=1;verticalAlign=top;verticalLabelPosition=bottom;labelBackgroundColor=#ffffff;imageAspect=0;aspect=fixed;image=https://cdn3.iconfinder.com/data/icons/currency-and-cryptocurrency-signs/64/cryptocurrency_blockchain_ruble-128.png;fillColor=#FF0000;" parent="1" vertex="1">
          <mxGeometry x="171" y="270" width="40" height="40" as="geometry" />
        </mxCell>
        <mxCell id="0R1qAQ1jFFHAe7dVqIl4-38" value="" style="shape=image;html=1;verticalAlign=top;verticalLabelPosition=bottom;labelBackgroundColor=#ffffff;imageAspect=0;aspect=fixed;image=https://cdn3.iconfinder.com/data/icons/currency-and-cryptocurrency-signs/64/cryptocurrency_blockchain_euro-128.png;fillColor=#FF0000;" parent="1" vertex="1">
          <mxGeometry x="170" y="59" width="41" height="41" as="geometry" />
        </mxCell>
        <mxCell id="0R1qAQ1jFFHAe7dVqIl4-53" value="" style="rounded=0;whiteSpace=wrap;html=1;fillColor=#000000;" parent="1" vertex="1">
          <mxGeometry x="350" y="160" width="50" height="10" as="geometry" />
        </mxCell>
        <mxCell id="0R1qAQ1jFFHAe7dVqIl4-54" value="" style="rounded=0;whiteSpace=wrap;html=1;fillColor=#FF0000;" parent="1" vertex="1">
          <mxGeometry x="350" y="170" width="50" height="10" as="geometry" />
        </mxCell>
        <mxCell id="0R1qAQ1jFFHAe7dVqIl4-55" value="" style="rounded=0;whiteSpace=wrap;html=1;fillColor=#FFFF00;" parent="1" vertex="1">
          <mxGeometry x="350" y="180" width="50" height="10" as="geometry" />
        </mxCell>
        <mxCell id="0R1qAQ1jFFHAe7dVqIl4-56" value="" style="endArrow=none;html=1;entryX=1;entryY=1;entryDx=0;entryDy=0;" parent="1" target="0R1qAQ1jFFHAe7dVqIl4-55" edge="1">
          <mxGeometry width="50" height="50" relative="1" as="geometry">
            <mxPoint x="400" y="210" as="sourcePoint" />
            <mxPoint x="470" y="120" as="targetPoint" />
          </mxGeometry>
        </mxCell>
        <mxCell id="0R1qAQ1jFFHAe7dVqIl4-60" value="" style="edgeStyle=elbowEdgeStyle;elbow=horizontal;endArrow=none;html=1;exitX=1;exitY=0.25;exitDx=0;exitDy=0;startArrow=classic;startFill=1;endFill=0;entryX=0.026;entryY=0.5;entryDx=0;entryDy=0;entryPerimeter=0;" parent="1" source="h2ipRNlJ9jQQIG3xSD_K-2" target="dCiTbQoPq_PcJCpmlZOW-11" edge="1">
          <mxGeometry width="50" height="50" relative="1" as="geometry">
            <mxPoint x="287" y="89.5" as="sourcePoint" />
            <mxPoint x="524.5" y="44" as="targetPoint" />
            <Array as="points">
              <mxPoint x="380" y="90" />
              <mxPoint x="380" y="90" />
              <mxPoint x="370" y="90" />
              <mxPoint x="370" y="60" />
              <mxPoint x="350" y="43" />
              <mxPoint x="380" y="60" />
            </Array>
          </mxGeometry>
        </mxCell>
        <mxCell id="0R1qAQ1jFFHAe7dVqIl4-61" value="" style="edgeStyle=elbowEdgeStyle;elbow=horizontal;endArrow=none;html=1;startArrow=classic;startFill=1;endFill=0;exitX=1;exitY=0.75;exitDx=0;exitDy=0;" parent="1" source="h2ipRNlJ9jQQIG3xSD_K-2" edge="1">
          <mxGeometry width="50" height="50" relative="1" as="geometry">
            <mxPoint x="287" y="103" as="sourcePoint" />
            <mxPoint x="520" y="132" as="targetPoint" />
          </mxGeometry>
        </mxCell>
        <mxCell id="0R1qAQ1jFFHAe7dVqIl4-62" value="" style="shape=mxgraph.bpmn.user_task;html=1;outlineConnect=0;fillColor=#00CC00;" parent="1" vertex="1">
          <mxGeometry x="410" y="370" width="30" height="30" as="geometry" />
        </mxCell>
        <mxCell id="0R1qAQ1jFFHAe7dVqIl4-63" value="" style="rounded=0;whiteSpace=wrap;html=1;fillColor=#FFFFFF;" parent="1" vertex="1">
          <mxGeometry x="350" y="370" width="50" height="10" as="geometry" />
        </mxCell>
        <mxCell id="0R1qAQ1jFFHAe7dVqIl4-64" value="" style="rounded=0;whiteSpace=wrap;html=1;fillColor=#0000FF;" parent="1" vertex="1">
          <mxGeometry x="350" y="380" width="50" height="10" as="geometry" />
        </mxCell>
        <mxCell id="0R1qAQ1jFFHAe7dVqIl4-65" value="" style="rounded=0;whiteSpace=wrap;html=1;fillColor=#FF0000;" parent="1" vertex="1">
          <mxGeometry x="350" y="390" width="50" height="10" as="geometry" />
        </mxCell>
        <mxCell id="0R1qAQ1jFFHAe7dVqIl4-66" value="" style="endArrow=none;html=1;entryX=1;entryY=1;entryDx=0;entryDy=0;" parent="1" target="0R1qAQ1jFFHAe7dVqIl4-65" edge="1">
          <mxGeometry width="50" height="50" relative="1" as="geometry">
            <mxPoint x="400" y="420" as="sourcePoint" />
            <mxPoint x="470" y="330" as="targetPoint" />
          </mxGeometry>
        </mxCell>
        <mxCell id="0R1qAQ1jFFHAe7dVqIl4-68" value="" style="shape=mxgraph.bpmn.user_task;html=1;outlineConnect=0;fillColor=#91AFED;" parent="1" vertex="1">
          <mxGeometry x="670" y="90" width="30" height="30" as="geometry" />
        </mxCell>
        <mxCell id="0R1qAQ1jFFHAe7dVqIl4-73" value="" style="endArrow=none;html=1;startArrow=classic;startFill=1;endFill=0;exitX=1;exitY=0.75;exitDx=0;exitDy=0;" parent="1" source="h2ipRNlJ9jQQIG3xSD_K-1" edge="1">
          <mxGeometry width="50" height="50" relative="1" as="geometry">
            <mxPoint x="287" y="305" as="sourcePoint" />
            <mxPoint x="520" y="307" as="targetPoint" />
            <Array as="points" />
          </mxGeometry>
        </mxCell>
        <mxCell id="0R1qAQ1jFFHAe7dVqIl4-78" value="" style="shape=mxgraph.bpmn.user_task;html=1;outlineConnect=0;sketch=0;shadow=0;fillColor=#3399FF;" parent="1" vertex="1">
          <mxGeometry x="670" y="330" width="30" height="30" as="geometry" />
        </mxCell>
        <mxCell id="0R1qAQ1jFFHAe7dVqIl4-83" value="" style="edgeStyle=elbowEdgeStyle;elbow=horizontal;endArrow=classic;html=1;dashed=1;strokeWidth=2;strokeColor=#CC6600;" parent="1" source="0R1qAQ1jFFHAe7dVqIl4-52" target="0R1qAQ1jFFHAe7dVqIl4-68" edge="1">
          <mxGeometry width="50" height="50" relative="1" as="geometry">
            <mxPoint x="400" y="170" as="sourcePoint" />
            <mxPoint x="660" y="100" as="targetPoint" />
            <Array as="points">
              <mxPoint x="490" y="130" />
            </Array>
          </mxGeometry>
        </mxCell>
        <mxCell id="0R1qAQ1jFFHAe7dVqIl4-52" value="" style="shape=mxgraph.bpmn.user_task;html=1;outlineConnect=0;fillColor=#00FC00;" parent="1" vertex="1">
          <mxGeometry x="410" y="160" width="30" height="30" as="geometry" />
        </mxCell>
        <mxCell id="0R1qAQ1jFFHAe7dVqIl4-84" value="" style="shape=image;html=1;verticalAlign=top;verticalLabelPosition=bottom;labelBackgroundColor=#ffffff;imageAspect=0;aspect=fixed;image=https://cdn2.iconfinder.com/data/icons/tax-outline/512/N_F009_07_TaxArtboard_1-128.png;strokeColor=#000000;fillColor=#FFFFFF;" parent="1" vertex="1">
          <mxGeometry x="700" y="40" width="40" height="40" as="geometry" />
        </mxCell>
        <mxCell id="0R1qAQ1jFFHAe7dVqIl4-90" value="" style="edgeStyle=elbowEdgeStyle;elbow=horizontal;endArrow=none;html=1;strokeWidth=1;startArrow=classic;startFill=1;endFill=0;exitX=1;exitY=0.25;exitDx=0;exitDy=0;" parent="1" source="h2ipRNlJ9jQQIG3xSD_K-1" edge="1">
          <mxGeometry width="50" height="50" relative="1" as="geometry">
            <mxPoint x="287" y="291.5" as="sourcePoint" />
            <mxPoint x="520" y="140" as="targetPoint" />
            <Array as="points">
              <mxPoint x="500" y="220" />
            </Array>
          </mxGeometry>
        </mxCell>
        <mxCell id="0R1qAQ1jFFHAe7dVqIl4-92" value="" style="curved=1;endArrow=classic;html=1;dashed=1;strokeWidth=2;strokeColor=#CC6600;" parent="1" edge="1">
          <mxGeometry width="50" height="50" relative="1" as="geometry">
            <mxPoint x="320" y="390" as="sourcePoint" />
            <mxPoint x="380" y="340" as="targetPoint" />
            <Array as="points">
              <mxPoint x="320" y="360" />
              <mxPoint x="350" y="340" />
            </Array>
          </mxGeometry>
        </mxCell>
        <mxCell id="0R1qAQ1jFFHAe7dVqIl4-94" value="" style="shape=image;html=1;verticalAlign=top;verticalLabelPosition=bottom;labelBackgroundColor=#ffffff;imageAspect=0;aspect=fixed;image=https://cdn2.iconfinder.com/data/icons/tax-outline/512/N_F009_07_TaxArtboard_1-128.png;strokeColor=#000000;fillColor=#FFFFFF;" parent="1" vertex="1">
          <mxGeometry x="382.5" y="315" width="40" height="40" as="geometry" />
        </mxCell>
        <mxCell id="0R1qAQ1jFFHAe7dVqIl4-96" value="" style="edgeStyle=elbowEdgeStyle;elbow=horizontal;endArrow=classic;html=1;dashed=1;strokeColor=#CC6600;strokeWidth=2;" parent="1" target="0R1qAQ1jFFHAe7dVqIl4-78" edge="1">
          <mxGeometry width="50" height="50" relative="1" as="geometry">
            <mxPoint x="440" y="390" as="sourcePoint" />
            <mxPoint x="660" y="350" as="targetPoint" />
            <Array as="points">
              <mxPoint x="640" y="370" />
            </Array>
          </mxGeometry>
        </mxCell>
        <mxCell id="0R1qAQ1jFFHAe7dVqIl4-99" value="" style="edgeStyle=segmentEdgeStyle;endArrow=classic;html=1;dashed=1;strokeColor=#CC6600;strokeWidth=2;" parent="1" target="0R1qAQ1jFFHAe7dVqIl4-68" edge="1">
          <mxGeometry width="50" height="50" relative="1" as="geometry">
            <mxPoint x="440" y="380" as="sourcePoint" />
            <mxPoint x="490" y="330" as="targetPoint" />
            <Array as="points">
              <mxPoint x="610" y="380" />
              <mxPoint x="610" y="280" />
              <mxPoint x="685" y="280" />
            </Array>
          </mxGeometry>
        </mxCell>
        <mxCell id="0R1qAQ1jFFHAe7dVqIl4-100" value="" style="shape=image;html=1;verticalAlign=top;verticalLabelPosition=bottom;labelBackgroundColor=#ffffff;imageAspect=0;aspect=fixed;image=https://cdn1.iconfinder.com/data/icons/cryptocurrency-blockchain-fintech-free/32/Cryptocurrency_digital_contract-128.png;fillColor=#FFFFFF;" parent="1" vertex="1">
          <mxGeometry x="258.5" y="478" width="34" height="34" as="geometry" />
        </mxCell>
        <mxCell id="0R1qAQ1jFFHAe7dVqIl4-101" value="&lt;font style=&quot;font-size: 12px&quot;&gt;Subscription&lt;br&gt;Подписка&lt;/font&gt;" style="text;html=1;strokeColor=none;fillColor=none;align=center;verticalAlign=middle;whiteSpace=wrap;rounded=0;" parent="1" vertex="1">
          <mxGeometry x="314.5" y="485" width="40" height="20" as="geometry" />
        </mxCell>
        <mxCell id="0R1qAQ1jFFHAe7dVqIl4-104" value="Plugin&lt;br&gt;Плагин" style="text;html=1;strokeColor=none;fillColor=none;align=center;verticalAlign=middle;whiteSpace=wrap;rounded=0;" parent="1" vertex="1">
          <mxGeometry x="594" y="489" width="40" height="20" as="geometry" />
        </mxCell>
        <mxCell id="0R1qAQ1jFFHAe7dVqIl4-106" value="" style="shape=mxgraph.bpmn.user_task;html=1;outlineConnect=0;fillColor=#FFB570;" parent="1" vertex="1">
          <mxGeometry x="130" y="477" width="30" height="30" as="geometry" />
        </mxCell>
        <mxCell id="0R1qAQ1jFFHAe7dVqIl4-107" value="Customer&lt;br&gt;Клиент" style="text;html=1;strokeColor=none;fillColor=none;align=center;verticalAlign=middle;whiteSpace=wrap;rounded=0;" parent="1" vertex="1">
          <mxGeometry x="172.5" y="484" width="60" height="20" as="geometry" />
        </mxCell>
        <mxCell id="0R1qAQ1jFFHAe7dVqIl4-108" value="" style="shape=mxgraph.bpmn.user_task;html=1;outlineConnect=0;fillColor=#00CC00;" parent="1" vertex="1">
          <mxGeometry x="392.5" y="480" width="30" height="30" as="geometry" />
        </mxCell>
        <mxCell id="0R1qAQ1jFFHAe7dVqIl4-109" value="&lt;br&gt;Support&lt;br&gt;&lt;div&gt;Поддержка&lt;/div&gt;&lt;div&gt;&lt;br&gt;&lt;/div&gt;" style="text;html=1;strokeColor=none;fillColor=none;align=center;verticalAlign=middle;whiteSpace=wrap;rounded=0;" parent="1" vertex="1">
          <mxGeometry x="430.5" y="487" width="90" height="20" as="geometry" />
        </mxCell>
        <mxCell id="0R1qAQ1jFFHAe7dVqIl4-110" value="" style="shape=mxgraph.bpmn.user_task;html=1;outlineConnect=0;fillColor=#3399FF;" parent="1" vertex="1">
          <mxGeometry x="662.5" y="479" width="30" height="30" as="geometry" />
        </mxCell>
        <mxCell id="0R1qAQ1jFFHAe7dVqIl4-111" value="Owner&lt;br&gt;Владелец" style="text;html=1;strokeColor=none;fillColor=none;align=center;verticalAlign=middle;whiteSpace=wrap;rounded=0;" parent="1" vertex="1">
          <mxGeometry x="692.5" y="485" width="89" height="20" as="geometry" />
        </mxCell>
        <mxCell id="dCiTbQoPq_PcJCpmlZOW-1" style="edgeStyle=orthogonalEdgeStyle;rounded=0;orthogonalLoop=1;jettySize=auto;html=1;exitX=0.5;exitY=1;exitDx=0;exitDy=0;" parent="1" source="0R1qAQ1jFFHAe7dVqIl4-109" target="0R1qAQ1jFFHAe7dVqIl4-109" edge="1">
          <mxGeometry relative="1" as="geometry" />
        </mxCell>
        <mxCell id="dCiTbQoPq_PcJCpmlZOW-9" value="" style="shape=module;align=left;spacingLeft=20;align=center;verticalAlign=top;labelBackgroundColor=#FF57C1;fillColor=#3399FF;jettyWidth=14;jettyHeight=6;" parent="1" vertex="1">
          <mxGeometry x="532.5" y="482" width="39" height="30" as="geometry" />
        </mxCell>
        <mxCell id="dCiTbQoPq_PcJCpmlZOW-10" value="" style="shape=module;align=left;spacingLeft=20;align=center;verticalAlign=top;labelBackgroundColor=#FF57C1;jettyWidth=14;jettyHeight=6;fillColor=#91AFED;" parent="1" vertex="1">
          <mxGeometry x="522.5" y="120" width="39" height="30" as="geometry" />
        </mxCell>
        <mxCell id="dCiTbQoPq_PcJCpmlZOW-11" value="" style="shape=module;align=left;spacingLeft=20;align=center;verticalAlign=top;labelBackgroundColor=#FF57C1;jettyWidth=14;jettyHeight=6;fillColor=#91AFED;" parent="1" vertex="1">
          <mxGeometry x="523.5" y="29" width="39" height="30" as="geometry" />
        </mxCell>
        <mxCell id="dCiTbQoPq_PcJCpmlZOW-12" value="" style="shape=module;align=left;spacingLeft=20;align=center;verticalAlign=top;labelBackgroundColor=#FF57C1;jettyWidth=14;jettyHeight=6;fillColor=#3399FF;" parent="1" vertex="1">
          <mxGeometry x="522.5" y="285" width="39" height="30" as="geometry" />
        </mxCell>
        <mxCell id="h2ipRNlJ9jQQIG3xSD_K-1" value="" style="shape=image;html=1;verticalAlign=top;verticalLabelPosition=bottom;labelBackgroundColor=#ffffff;imageAspect=0;aspect=fixed;image=https://cdn1.iconfinder.com/data/icons/cryptocurrency-blockchain-fintech-free/32/Cryptocurrency_digital_contract-128.png;fillColor=#FFFFFF;imageBorder=none;" parent="1" vertex="1">
          <mxGeometry x="253" y="281" width="34" height="34" as="geometry" />
        </mxCell>
        <mxCell id="h2ipRNlJ9jQQIG3xSD_K-2" value="" style="shape=image;html=1;verticalAlign=top;verticalLabelPosition=bottom;labelBackgroundColor=#ffffff;imageAspect=0;aspect=fixed;image=https://cdn1.iconfinder.com/data/icons/cryptocurrency-blockchain-fintech-free/32/Cryptocurrency_digital_contract-128.png;fillColor=#FFFFFF;" parent="1" vertex="1">
          <mxGeometry x="253" y="66" width="34" height="34" as="geometry" />
        </mxCell>
      </root>
    </mxGraphModel>
  </diagram>
</mxfile>
